<svg width="36" height="36" viewBox="0 0 36 36" fill="none" xmlns="http://www.w3.org/2000/svg">
<rect width="36" height="36" rx="8" fill="#8E47F0" fill-opacity="0.05"/>
<path d="M26 12.75C26 12.1977 25.5523 11.75 25 11.75H11C10.4477 11.75 10 12.1977 10 12.75V22.75C10 23.3023 10.4477 23.75 11 23.75H15.5858C15.851 23.75 16.1054 23.8554 16.2929 24.0429L17.2929 25.0429C17.6834 25.4334 18.3166 25.4334 18.7071 25.0429L19.7071 24.0429C19.8946 23.8554 20.149 23.75 20.4142 23.75H25C25.5523 23.75 26 23.3023 26 22.75V12.75Z" stroke="#8E47F0" stroke-width="1.1" stroke-linecap="round" stroke-linejoin="round"/>
<path d="M18 18.1499C19.1046 18.1499 20 17.2545 20 16.1499C20 15.0453 19.1046 14.1499 18 14.1499C16.8954 14.1499 16 15.0453 16 16.1499C16 17.2545 16.8954 18.1499 18 18.1499Z" stroke="#8E47F0" stroke-width="1.1" stroke-linecap="round" stroke-linejoin="round"/>
<path d="M21.5999 21.3499C21.5999 19.5826 19.9881 18.1499 17.9999 18.1499C16.0117 18.1499 14.3999 19.5826 14.3999 21.3499" stroke="#8E47F0" stroke-width="1.1" stroke-linecap="round" stroke-linejoin="round"/>
</svg>
