<svg width="36" height="36" viewBox="0 0 36 36" fill="none" xmlns="http://www.w3.org/2000/svg">
<rect width="36" height="36" rx="8" fill="#0276C9" fill-opacity="0.05"/>
<path d="M17.6086 9C13.891 9 10.8526 11.7186 10.8526 15.108C10.8526 15.5526 10.9054 15.9912 11.0086 16.4178L10.0522 18.5592C10.0143 18.644 9.99662 18.7365 10.0005 18.8293C10.0044 18.9221 10.0299 19.0127 10.0748 19.094C10.1197 19.1754 10.1828 19.2451 10.2593 19.2979C10.3358 19.3506 10.4234 19.3849 10.5154 19.398C11.533 19.5432 11.953 19.9824 11.953 20.8476V22.9392C11.953 23.2575 12.0794 23.5627 12.3045 23.7877C12.5295 24.0128 12.8347 24.1392 13.153 24.1392H13.5412C13.8595 24.1392 14.1647 24.2656 14.3897 24.4907C14.6148 24.7157 14.7412 25.0209 14.7412 25.3392V26.4C14.7412 26.5591 14.8044 26.7117 14.9169 26.8243C15.0295 26.9368 15.1821 27 15.3412 27H21.8212C21.9803 27 22.1329 26.9368 22.2455 26.8243C22.358 26.7117 22.4212 26.5591 22.4212 26.4C22.4212 26.2409 22.358 26.0883 22.2455 25.9757C22.1329 25.8632 21.9803 25.8 21.8212 25.8H15.9412V25.3386C15.9412 24.7021 15.6884 24.0916 15.2383 23.6415C14.7882 23.1915 14.1777 22.9386 13.5412 22.9386H13.1524V20.847C13.1524 19.6158 12.5488 18.7716 11.4424 18.3882L12.19 16.7142C12.2475 16.5857 12.2579 16.441 12.2194 16.3056C12.1085 15.9159 12.0524 15.5126 12.0526 15.1074C12.0526 12.4128 14.5264 10.1994 17.6086 10.1994C20.6908 10.1994 23.1646 12.4122 23.1646 15.1074C23.1646 15.2665 23.2278 15.4191 23.3403 15.5317C23.4529 15.6442 23.6055 15.7074 23.7646 15.7074C23.9237 15.7074 24.0763 15.6442 24.1889 15.5317C24.3014 15.4191 24.3646 15.2665 24.3646 15.1074C24.3646 11.7186 21.3256 9 17.6086 9ZM25.1494 16.8C24.9903 16.8 24.8377 16.8632 24.7251 16.9757C24.6126 17.0883 24.5494 17.2409 24.5494 17.4V24.15C24.5494 24.3091 24.6126 24.4617 24.7251 24.5743C24.8377 24.6868 24.9903 24.75 25.1494 24.75C25.3085 24.75 25.4612 24.6868 25.5737 24.5743C25.6862 24.4617 25.7494 24.3091 25.7494 24.15V17.4C25.7494 17.2409 25.6862 17.0883 25.5737 16.9757C25.4612 16.8632 25.3085 16.8 25.1494 16.8Z" fill="#0276C9" stroke="#0276C9" stroke-width="0.2"/>
<path d="M20.8348 17.1499C20.6146 16.6705 19.927 16.6879 19.732 17.1787L17.242 23.4367C17.1831 23.5846 17.1854 23.7499 17.2484 23.8961C17.3113 24.0423 17.4298 24.1575 17.5777 24.2164C17.7256 24.2753 17.8909 24.273 18.0371 24.2101C18.1833 24.1471 18.2985 24.0286 18.3574 23.8807L18.9688 22.3447C18.9796 22.3453 18.9892 22.3507 19 22.3507H21.9034L22.6192 23.9089C22.6857 24.0535 22.8068 24.1658 22.956 24.221C23.1052 24.2762 23.2703 24.27 23.4148 24.2035C23.5594 24.1371 23.6716 24.0159 23.7269 23.8667C23.7821 23.7175 23.7759 23.5525 23.7094 23.4079L20.8348 17.1499ZM19.4434 21.1501L20.3296 18.9241L21.352 21.1501H19.4434Z" fill="#0276C9" stroke="#0276C9" stroke-width="0.2"/>
</svg>
