<svg width="77" height="70" viewBox="0 0 77 70" fill="none" xmlns="http://www.w3.org/2000/svg">
<g id="&#231;&#187;&#132; 5">
<path id="Rectangle" d="M7.86068 53.2127C7.84677 54.9626 8.52519 56.6465 9.74673 57.8938C10.9683 59.1412 12.6329 59.85 14.3745 59.8643H26.5803C27.5222 59.8626 28.4525 59.6543 29.306 59.2539C30.1595 58.8536 30.9157 58.2708 31.5219 57.5463L34.6885 53.7743C35.2946 53.0498 36.0509 52.4671 36.9044 52.0667C37.7579 51.6664 38.6881 51.458 39.63 51.4563H63.2216C64.9631 51.4421 66.6278 50.7333 67.8493 49.4859C69.0708 48.2385 69.7493 46.5547 69.7353 44.8048V6.65159C69.7493 4.90166 69.0708 3.21783 67.8493 1.97045C66.6278 0.723066 64.9631 0.0142883 63.2216 0H14.3745C12.6329 0.0142883 10.9683 0.723066 9.74673 1.97045C8.52519 3.21783 7.84677 4.90166 7.86068 6.65159V53.2127Z" fill="#8E47F0"/>
<path id="Rectangle_2" d="M0.261119 16.8175C0.243414 14.4849 1.14857 12.2407 2.77751 10.5786C4.40644 8.91652 6.62573 7.97263 8.94723 7.95456L23.3776 7.95456C24.5093 7.95626 25.6295 8.18193 26.6743 8.61868C27.7192 9.05544 28.6682 9.69472 29.4671 10.5L33.0834 14.1273C33.8823 14.9326 34.8313 15.5719 35.8761 16.0086C36.921 16.4454 38.0412 16.671 39.1729 16.6727H67.5745C69.8952 16.6908 72.1137 17.634 73.7425 19.2951C75.3713 20.9562 76.277 23.1991 76.2606 25.5309V61.1354C76.2696 62.2906 76.052 63.4362 75.6204 64.5068C75.1887 65.5775 74.5514 66.5522 73.7448 67.3754C72.9382 68.1985 71.9781 68.854 70.9194 69.3043C69.8607 69.7546 68.7241 69.991 67.5745 70H8.94723C6.62573 69.9819 4.40644 69.038 2.77751 67.3759C1.14857 65.7138 0.243414 63.4697 0.261119 61.137V16.8175Z" fill="url(#paint0_linear_384_3647)"/>
<path id="Path 5" d="M29.0656 44.3816C28.6523 44.3819 28.248 44.2604 27.9027 44.0321C27.5575 43.8038 27.2865 43.4787 27.1233 43.0971C26.9602 42.7156 26.912 42.2943 26.9848 41.8855C27.0576 41.4767 27.2482 41.0983 27.5329 40.7973L37.139 30.625C37.3418 30.41 37.5861 30.2388 37.8569 30.1218C38.1278 30.0048 38.4195 29.9444 38.7144 29.9444C39.0092 29.9444 39.3009 30.0048 39.5718 30.1218C39.8426 30.2388 40.0869 30.41 40.2898 30.625L49.8958 40.7957C50.1805 41.0967 50.3711 41.4751 50.4439 41.8839C50.5167 42.2927 50.4686 42.714 50.3054 43.0955C50.1423 43.4771 49.8713 43.8022 49.526 44.0305C49.1808 44.2588 48.7764 44.3804 48.3631 44.38H44.5315C44.2434 44.38 43.9672 44.495 43.7635 44.6997C43.5598 44.9043 43.4453 45.1819 43.4453 45.4714V49.6841C43.4455 49.9707 43.3895 50.2545 43.2806 50.5193C43.1716 50.7841 43.0117 51.0247 42.8101 51.2274C42.6085 51.4301 42.3691 51.5909 42.1057 51.7007C41.8422 51.8104 41.5598 51.8668 41.2746 51.8668H36.1541C35.5784 51.8668 35.0263 51.637 34.6192 51.228C34.2121 50.819 33.9834 50.2642 33.9834 49.6857V45.4714C33.9834 45.1819 33.869 44.9043 33.6653 44.6997C33.4616 44.495 33.1853 44.38 32.8972 44.38L29.0656 44.3816Z" fill="white" fill-opacity="0.9"/>
</g>
<defs>
<linearGradient id="paint0_linear_384_3647" x1="-5.81913" y1="-24.6193" x2="28.0822" y2="89.0446" gradientUnits="userSpaceOnUse">
<stop stop-color="#DBC2FF"/>
<stop offset="1" stop-color="#8E47F0"/>
</linearGradient>
</defs>
</svg>
